<?xml version="1.0" encoding="utf-8"?>
<!-- Generator: Adobe Illustrator 25.2.3, SVG Export Plug-In . SVG Version: 6.00 Build 0)  -->
<svg version="1.1" id="Layer_1" xmlns="http://www.w3.org/2000/svg" xmlns:xlink="http://www.w3.org/1999/xlink" x="0px" y="0px"
	 viewBox="0 0 700 700" style="enable-background:new 0 0 700 700;" xml:space="preserve">
<style type="text/css">
	.st0{fill:#23364E;}
	.st1{fill:#FFFFFF;}
</style>
<rect class="st0" width="700" height="700"/>
<g id="Layer_2_1_">
	<g id="Layer_1-2">
		<path class="st1" d="M520.2,239.9l-160-92.4c-6.3-3.7-14.2-3.7-20.5,0l-160,92.4c-6.3,3.7-10.3,10.4-10.3,17.7v184.7
			c0,7.3,3.9,14.1,10.3,17.8l160,92.3c6.3,3.7,14.2,3.7,20.5,0l160-92.3c6.4-3.7,10.3-10.4,10.3-17.8V257.7
			C530.5,250.3,526.6,243.6,520.2,239.9z M456.8,392c-0.6,32.4-28.1,57.9-60.5,57.9h-65.5c-3.8,0-6.8-3.1-6.8-6.8v-22.7
			c0-3.8,3.1-6.8,6.8-6.8h66c12.4,0.2,22.8-9.4,23.6-21.9c0.4-12.5-9.3-23-21.8-23.4c-0.2,0-0.4,0-0.6,0H293.4v74.8
			c0,3.8-3.1,6.8-6.8,6.8h-22.7c-3.8,0-6.8-3.1-6.8-6.8V257c0-3.8,3.1-6.8,6.8-6.8h22.7c3.8,0,6.8,3.1,6.8,6.8v74.8h104.3
			c12.5,0,22.7-10.2,22.7-22.7c0-0.2,0-0.4,0-0.7c-0.7-12.5-11.1-22.1-23.6-22h-66c-3.8,0-6.8-3.1-6.8-6.8V257
			c0-3.8,3.1-6.8,6.8-6.8h66.9c32.6,0,59,26.4,59,59c0,15.2-5.9,29.8-16.4,40.8C451.1,361.2,457.1,376.4,456.8,392z"/>
	</g>
</g>
</svg>
