<?xml version="1.0" encoding="UTF-8"?>
<svg width="161px" height="24px" viewBox="0 0 161 24" version="1.1" xmlns="http://www.w3.org/2000/svg" xmlns:xlink="http://www.w3.org/1999/xlink">
    <!-- Generator: Sketch 53.2 (72643) - https://sketchapp.com -->
    <title>logo-dark</title>
    <desc>Created with Sketch.</desc>
    <g id="Symbols" stroke="none" stroke-width="1" fill="none" fill-rule="evenodd">
        <g id="Components/Topbar/Desktop" transform="translate(-157.000000, -32.000000)">
            <g id="Group-7">
                <g transform="translate(157.000000, 32.000000)">
                    <g id="logo-dark">
                        <path d="M13.5374252,18.0898667 L9.81722242,11.5978667 C9.21953749,12.8107556 8.76300324,14.5716444 8.74756488,17.1809778 L11.9503621,22.7707556 C12.124595,23.0747556 12.4470361,23.2623111 12.7955019,23.2623111 L14.2797895,23.2623111 C14.6282553,23.2623111 14.9498142,23.0756444 15.1240471,22.7716444 C16.8081512,19.8320889 19.5738224,15.0054222 22.1268854,10.5503111 C22.2587731,10.3200889 22.0933621,10.0325333 21.8295868,10.0325333 L18.5698882,10.0325333 C18.3127293,10.0325333 18.0749786,10.1707556 17.9466197,10.3956444 L13.5374252,18.0898667 Z" id="Fill-44" fill="#20323F"></path>
                        <path d="M28.1719723,0 C20.8546326,12.7697778 7.62175584,0 7.62175584,15.2164444 L0.201199679,2.26622222 C-0.0577236087,1.81466667 -0.0762496361,1.24 0.201199679,0.755555556 C0.478648994,0.271111111 0.982380501,0 1.49978598,0 L28.1719723,0 Z" id="Fill-46" fill="#E72076"></path>
                        <path d="M32.2762372,19.5868444 C32.9766975,18.9308444 33.3203112,17.9655111 33.3203112,16.7152889 C33.3203112,15.4655111 32.9643468,14.4877333 32.2643276,13.7819556 C31.5638674,13.0766222 30.6918208,12.7175111 29.6724482,12.7175111 C28.6649852,12.7175111 27.8171989,13.0641778 27.141881,13.7570667 C26.4665632,14.4504 26.1225084,15.4157333 26.1225084,16.6410667 C26.1225084,17.8784 26.4665632,18.8441778 27.1542317,19.5370667 C27.8419002,20.2304 28.7015961,20.5770667 29.7214098,20.5770667 C30.7288728,20.5770667 31.576218,20.2428444 32.2762372,19.5868444 L32.2762372,19.5868444 Z M36.3665194,10.0317333 C36.6863139,10.0317333 36.8455495,10.1926222 36.8455495,10.5144 L36.8455495,22.7797333 C36.8455495,23.1015111 36.6863139,23.2624 36.3665194,23.2624 L33.9224071,23.2624 C33.6890674,23.2624 33.5293906,23.1015111 33.4433769,22.7797333 L33.2466482,21.1584 C32.0428975,22.7672889 30.5444947,23.5717333 28.7633495,23.5717333 C27.068218,23.5717333 25.6187769,22.9406222 24.4273769,21.6904 C23.2355358,20.4406222 22.633881,18.7575111 22.633881,16.6410667 C22.633881,14.5246222 23.2355358,12.8415111 24.4397276,11.5788444 C25.6311276,10.3290667 27.0558674,9.69795556 28.6896865,9.69795556 C30.4461304,9.69795556 31.9815852,10.4526222 33.2713495,11.9628444 L33.4433769,10.5144 C33.4923386,10.1926222 33.6520153,10.0317333 33.9224071,10.0317333 L36.3665194,10.0317333 Z" id="Fill-51" fill="#20323F"></path>
                        <path d="M41.2338361,21.5421333 C39.9687731,20.2052444 39.3424169,18.5594667 39.3424169,16.6163556 C39.3424169,14.6981333 39.9806827,13.0643556 41.2461868,11.7274667 C42.5112498,10.3910222 44.1203676,9.72257778 46.0982416,9.72257778 C47.1670169,9.72257778 48.1493375,9.9328 49.0460854,10.3536889 C49.9428334,10.7870222 50.6552032,11.3314667 51.183195,12.0123556 C51.3922745,12.2723556 51.3552224,12.4950222 51.0848306,12.6928 L49.4514526,13.9305778 C49.2181128,14.0914667 48.9971238,14.0665778 48.800395,13.8563556 C48.0514142,13.1012444 47.1789265,12.7176889 46.2085156,12.7176889 C45.1644416,12.7176889 44.3294471,13.0888 43.6783895,13.8439111 C43.0268909,14.5990222 42.7079786,15.5270222 42.7079786,16.6408 C42.7079786,17.7674667 43.0268909,18.6954667 43.6783895,19.4381333 C44.3294471,20.1808 45.1767923,20.5519111 46.2332169,20.5519111 C46.8719238,20.5519111 47.3633046,20.3790222 47.7810224,20.2181333 C48.0262717,20.1190222 48.3460663,19.8959111 48.4567813,19.7972444 C48.5176526,19.7599111 48.6036663,19.6856889 48.7143813,19.5870222 L48.8987594,19.4381333 C49.1320991,19.2523556 49.36588,19.2274667 49.5745183,19.3888 L51.183195,20.5519111 C51.4165347,20.7376889 51.4659375,20.9603556 51.3062608,21.2079111 C50.8025293,21.8888 50.0778087,22.4456889 49.1320991,22.8785778 C48.1863895,23.3243556 47.1670169,23.5474667 46.0735402,23.5474667 C44.1080169,23.5474667 42.4993402,22.8785778 41.2338361,21.5421333" id="Fill-53" fill="#20323F"></path>
                        <path d="M65.9013739,10.0319556 C66.2207274,10.0319556 66.3804041,10.1928444 66.3804041,10.5146222 L66.3804041,22.7799556 C66.3804041,23.1017333 66.2207274,23.2626222 65.9013739,23.2626222 L63.3584561,23.2626222 C63.0880643,23.2626222 62.9283876,23.1017333 62.879426,22.7799556 L62.7073986,21.4928444 C61.4670369,22.8786222 59.9315821,23.5719556 58.1261767,23.5719556 C54.9688123,23.5719556 53.2741219,21.3439556 53.2741219,17.2350667 L53.2741219,10.5146222 C53.2741219,10.1928444 53.4333575,10.0319556 53.7527109,10.0319556 L56.4919164,10.0319556 C56.8117109,10.0319556 56.9709465,10.1928444 56.9709465,10.5146222 L56.9709465,17.2350667 C56.9709465,19.1288444 57.9537082,20.2426222 59.636489,20.2426222 C61.3686726,20.2426222 62.5724232,19.0172889 62.6831383,16.4430667 L62.6831383,10.5146222 C62.6831383,10.1928444 62.842815,10.0319556 63.1621684,10.0319556 L65.9013739,10.0319556 Z" id="Fill-55" fill="#20323F"></path>
                        <path d="M82.093563,10.0319556 C82.4129164,10.0319556 82.572152,10.1928444 82.572152,10.5146222 L82.572152,22.7799556 C82.572152,23.1017333 82.4129164,23.2626222 82.093563,23.2626222 L79.5506452,23.2626222 C79.2806945,23.2626222 79.1205767,23.1017333 79.071615,22.7799556 L78.8995876,21.4928444 C77.6587849,22.8786222 76.1233301,23.5719556 74.3179246,23.5719556 C71.1610013,23.5719556 69.4663109,21.3439556 69.4663109,17.2350667 L69.4663109,10.5146222 C69.4663109,10.1928444 69.6255465,10.0319556 69.9449,10.0319556 L72.6841054,10.0319556 C73.0039,10.0319556 73.1631356,10.1928444 73.1631356,10.5146222 L73.1631356,17.2350667 C73.1631356,19.1288444 74.1458972,20.2426222 75.828678,20.2426222 C77.5604205,20.2426222 78.7646123,19.0172889 78.8748863,16.4430667 L78.8748863,10.5146222 C78.8748863,10.1928444 79.034563,10.0319556 79.3543575,10.0319556 L82.093563,10.0319556 Z" id="Fill-57" fill="#20323F"></path>
                        <path d="M107.018921,11.4056444 C107.940371,12.5318667 108.394699,14.0789778 108.394699,16.0345333 L108.394699,22.7798667 C108.394699,23.1016444 108.235023,23.2625333 107.915669,23.2625333 L105.176464,23.2625333 C104.85711,23.2625333 104.697434,23.1016444 104.697434,22.7798667 L104.697434,16.0345333 C104.697434,14.1412 103.727464,13.0518667 102.057034,13.0518667 C100.275447,13.0518667 99.0840474,14.2523111 98.985683,16.8265333 L98.985683,22.7798667 C98.985683,23.1016444 98.8264474,23.2625333 98.5066528,23.2625333 L95.8411104,23.2625333 C95.5217569,23.2625333 95.3620802,23.1016444 95.3620802,22.7798667 L95.3620802,16.0345333 C95.3620802,14.1412 94.3797597,13.0518667 92.6965378,13.0518667 C90.9158337,13.0518667 89.7239926,14.2523111 89.6256282,16.8265333 L89.6256282,22.7798667 C89.6256282,23.1016444 89.4659515,23.2625333 89.146598,23.2625333 L86.4073926,23.2625333 C86.0880391,23.2625333 85.9288035,23.1016444 85.9288035,22.7798667 L85.9288035,10.5145333 C85.9288035,10.1927556 86.0880391,10.0318667 86.4073926,10.0318667 L88.9750117,10.0318667 C89.2083515,10.0318667 89.3675871,10.1927556 89.4540419,10.5145333 L89.6013679,11.7767556 C90.7927679,10.4029778 92.2175076,9.72253333 93.9007295,9.72253333 C95.9518254,9.72253333 97.4136172,10.6380889 98.2856638,12.4700889 C99.5264665,10.6380889 101.172636,9.72253333 103.236083,9.72253333 C104.83285,9.72253333 106.097913,10.2794222 107.018921,11.4056444" id="Fill-59" fill="#20323F"></path>
                        <path d="M111.961445,23.2624 C111.740897,23.2624 111.629741,23.1512889 111.642091,22.9281778 L111.642091,5.19262222 C111.642091,4.96995556 111.752807,4.8584 111.961445,4.8584 L113.7545,4.8584 C113.97593,4.8584 114.086204,4.96995556 114.074294,5.19262222 L114.074294,22.9281778 C114.074294,23.1512889 113.96402,23.2624 113.7545,23.2624 L111.961445,23.2624 Z" id="Fill-61" fill="#20323F"></path>
                        <path d="M127.193897,20.3044889 C128.066385,19.4876 128.507922,18.3738222 128.507922,16.9502667 C128.507922,15.5147111 128.066385,14.3267111 127.169196,13.3858222 C126.272448,12.4578222 125.167062,11.9871556 123.853037,11.9871556 C122.587974,11.9871556 121.531108,12.4329333 120.683763,13.3116 C119.835977,14.2027111 119.40635,15.3538222 119.40635,16.7769333 C119.40635,18.2004889 119.835977,19.3391556 120.696555,20.2178222 C121.55581,21.0964889 122.636936,21.5422667 123.950961,21.5422667 C125.228815,21.5422667 126.3095,21.1338222 127.193897,20.3044889 L127.193897,20.3044889 Z M130.498147,10.2547111 C130.719136,10.2547111 130.829851,10.3662667 130.817941,10.5889333 L130.817941,22.9280444 C130.817941,23.1511556 130.706785,23.2622667 130.498147,23.2622667 L129.085317,23.2622667 C128.926081,23.2622667 128.815366,23.1511556 128.754054,22.9280444 L128.581585,21.0347111 C127.292262,22.7302667 125.572429,23.5720444 123.44767,23.5720444 C121.617122,23.5720444 120.094018,22.9409333 118.865566,21.6782667 C117.625204,20.4156 117.010758,18.7822667 117.010758,16.7769333 C117.010758,14.7476 117.625204,13.1013778 118.865566,11.8262667 C120.094018,10.5640444 121.592862,9.93293333 123.374007,9.93293333 C125.486415,9.93293333 127.365925,10.9107111 128.581585,12.5444889 L128.754054,10.5889333 C128.790665,10.3662667 128.900939,10.2547111 129.085317,10.2547111 L130.498147,10.2547111 Z" id="Fill-63" fill="#20323F"></path>
                        <path d="M144.82353,20.2179111 C145.683226,19.3392444 146.113294,18.2005778 146.113294,16.7770222 C146.113294,15.3539111 145.683226,14.2028 144.835439,13.3116889 C143.976185,12.4330222 142.920201,11.9872444 141.654256,11.9872444 C140.340231,11.9872444 139.246754,12.4579111 138.350007,13.3859111 C137.4537,14.3268 136.999371,15.5148 136.999371,16.9503556 C136.999371,18.3739111 137.441349,19.4876889 138.325746,20.3045778 C139.197793,21.1339111 140.278919,21.5419111 141.556333,21.5419111 C142.870357,21.5419111 143.951042,21.0965778 144.82353,20.2179111 M146.653637,11.8263556 C147.882089,13.1014667 148.496094,14.7472444 148.496094,16.7770222 C148.496094,18.7948 147.882089,20.4285778 146.653637,21.6783556 C145.413275,22.9405778 143.890171,23.5716889 142.059623,23.5716889 C139.84885,23.5716889 138.105198,22.6685778 136.827344,20.8739111 L136.631056,22.9281333 C136.581212,23.1512444 136.470497,23.2623556 136.298911,23.2623556 L134.886522,23.2623556 C134.665533,23.2623556 134.554817,23.1512444 134.567168,22.9281333 L134.567168,5.19257778 C134.567168,4.96991111 134.677442,4.85835556 134.886522,4.85835556 L136.679576,4.85835556 C136.901007,4.85835556 137.011281,4.96991111 136.999371,5.19257778 L136.999371,12.4454667 C138.325746,10.7743556 140.033228,9.93302222 142.133727,9.93302222 C143.914431,9.93302222 145.413275,10.5641333 146.653637,11.8263556" id="Fill-65" fill="#20323F"></path>
                        <path d="M152.663304,23.0026222 C151.766556,22.6310667 151.078887,22.1488444 150.612208,21.5421778 C150.464882,21.3932889 150.45209,21.2328444 150.587506,21.0595111 L151.238564,20.0692889 C151.373539,19.8586222 151.532775,19.8466222 151.742295,20.0199556 C152.564939,21.0346222 153.867054,21.5421778 155.672901,21.5421778 C157.625632,21.5421778 158.596043,20.8612889 158.584134,19.5124 C158.584134,18.8315111 158.374613,18.4230667 157.723997,18.1137333 C157.392293,17.9652889 157.08529,17.8541778 156.802547,17.7675111 C156.520246,17.6928444 156.065917,17.5941778 155.439561,17.4577333 C154.714399,17.3092889 154.137446,17.1608444 153.683117,17.0248444 C153.228347,16.8884 152.761668,16.6901778 152.257936,16.4186222 C151.250914,15.8737333 150.734832,15.0070667 150.734832,13.7817333 C150.734832,12.6061778 151.189161,11.6657333 152.11061,10.9728444 C153.019709,10.2795111 154.22346,9.93284444 155.721862,9.93284444 C157.453605,9.93284444 158.989501,10.4772889 160.352928,11.5790667 C160.561567,11.6901778 160.586268,11.8515111 160.426591,12.0617333 L159.763183,13.0026222 C159.652468,13.1879556 159.492791,13.2248444 159.296062,13.1012889 C158.350794,12.3586222 157.208356,11.9870667 155.844928,11.9870667 C153.965419,11.9870667 153.03206,12.5568444 153.03206,13.7075111 C153.03206,14.0915111 153.179386,14.4132889 153.474038,14.6732889 C153.75678,14.9332889 154.075693,15.1186222 154.419747,15.2177333 C154.763802,15.3292889 155.243273,15.4404 155.844928,15.5519556 C155.955202,15.5644 156.053567,15.5888444 156.127671,15.6137333 C157.687386,15.9355111 158.866435,16.3688444 159.677169,16.9132889 C160.475553,17.4701778 160.88092,18.3244 160.88092,19.4875111 C160.88092,20.7252889 160.426591,21.7155111 159.529402,22.4581778 C158.621186,23.2008444 157.355682,23.5719556 155.721862,23.5719556 C154.579424,23.5719556 153.55961,23.3861778 152.663304,23.0026222" id="Fill-67" fill="#20323F"></path>
                    </g>
                </g>
            </g>
        </g>
    </g>
</svg>